<?xml version="1.0" ?><svg xmlns="http://www.w3.org/2000/svg" xmlns:xlink="http://www.w3.org/1999/xlink" version="1.1" viewBox="0 0 512 512" style="enable-background:new 0 0 512 512;" xml:space="preserve"><g id="_x30_8_x2C__Big_Dice_x2C__Casino_x2C__Luck_x2C__Gambling_x2C__Gambler_x2C__Game_x2C__Probability_x2C__Games"><g><path style="fill:#9DCAFC;" d="M381.01,50.98v180c0,11.05-8.95,20-20,20h-210c-11.05,0-20-8.95-20-20v-180c0-11.04,8.95-20,20-20    h210C372.06,30.98,381.01,39.94,381.01,50.98z"/><path style="fill:#FFFFFF;" d="M322.9,351.53L450.31,274c15.74-9.72,36.38-4.84,46.1,10.9c9.73,15.76,4.86,36.38-10.89,46.1    L263.05,460.98c-1.01,0.63-2.17,0.96-3.35,0.96c-11.72,0-187.35,0-199.1,0L46.61,383.8l13.99-84.61    c24.85-14.37,56.25-14.49,81.55,0.92c9.23,5.62,19.92,8.37,30.73,8.37h132.15c13.71,0,25.29,10.79,25.57,24.49    C330.75,340.26,327.77,346.87,322.9,351.53z"/><polygon style="fill:#FFFFFF;" points="60.6,461.94 60.6,481.02 10.6,481.02 10.6,268.48 60.6,268.48 60.6,299.19   "/><circle style="fill:#FFFFFF;" cx="321.01" cy="90.98" r="20"/><circle style="fill:#FFFFFF;" cx="256.01" cy="140.98" r="20"/><circle style="fill:#FFFFFF;" cx="191.01" cy="190.98" r="20"/><g><path style="fill:#4269A7;" d="M504.92,279.65c-12.602-20.405-39.455-26.756-59.807-14.188L340.336,329.22     c-2.159-17.244-17.294-30.735-35.304-30.735H172.881c-9.271,0-18.1-2.392-25.531-6.917c-23.34-14.215-51.54-16.885-76.748-7.948     v-15.135c0-5.523-4.477-10-10-10h-50c-5.523,0-10,4.477-10,10v212.531c0,5.523,4.477,10,10,10h50c5.523,0,10-4.477,10-10v-9.08     h189.101c2.991,0,5.919-0.817,8.477-2.365l222.388-129.932c0.07-0.041,0.14-0.083,0.209-0.126     C511.176,326.914,517.522,300.06,504.92,279.65z M50.601,471.016h-30V278.484h30V471.016z M480.361,322.438L258.716,451.936     H70.601V305.234c21.171-10.075,46.107-8.911,66.345,3.415c10.566,6.435,22.992,9.836,35.934,9.836h132.151     c8.421,0,15.404,6.589,15.566,14.688c0.168,8.427-6.581,15.312-14.997,15.312h-75c-5.523,0-10,4.477-10,10s4.477,10,10,10h75     c9,0,17.176-3.385,23.362-8.933l126.602-77.039c11.026-6.806,25.531-3.376,32.338,7.646     C494.692,301.153,491.305,315.608,480.361,322.438z"/><path style="fill:#4269A7;" d="M151.01,260.984h210c16.542,0,30-13.458,30-30v-180c0-16.542-13.458-30-30-30h-210     c-16.542,0-30,13.458-30,30v180C121.01,247.526,134.468,260.984,151.01,260.984z M141.01,50.984c0-5.514,4.486-10,10-10h210     c5.514,0,10,4.486,10,10v180c0,5.514-4.486,10-10,10h-210c-5.514,0-10-4.486-10-10V50.984z"/><path style="fill:#4269A7;" d="M256.01,170.984c16.542,0,30-13.458,30-30s-13.458-30-30-30s-30,13.458-30,30     S239.468,170.984,256.01,170.984z M256.01,130.984c5.514,0,10,4.486,10,10s-4.486,10-10,10c-5.514,0-10-4.486-10-10     S250.496,130.984,256.01,130.984z"/><path style="fill:#4269A7;" d="M191.01,220.984c16.542,0,30-13.458,30-30s-13.458-30-30-30s-30,13.458-30,30     S174.468,220.984,191.01,220.984z M191.01,180.984c5.514,0,10,4.486,10,10s-4.486,10-10,10s-10-4.486-10-10     S185.496,180.984,191.01,180.984z"/><path style="fill:#4269A7;" d="M321.01,120.984c16.542,0,30-13.458,30-30s-13.458-30-30-30s-30,13.458-30,30     S304.468,120.984,321.01,120.984z M321.01,80.984c5.514,0,10,4.486,10,10s-4.486,10-10,10s-10-4.486-10-10     S315.497,80.984,321.01,80.984z"/></g></g></g><g id="Layer_1"/></svg>